<svg width="72" height="72" viewBox="0 0 72 72" fill="none" xmlns="http://www.w3.org/2000/svg">
<g clip-path="url(#clip0_690_648)" filter="url(#filter0_d_690_648)">
<path d="M36.0001 40.0013C40.4184 40.0013 44.0001 36.4196 44.0001 32.0013C44.0001 27.583 40.4184 24.0013 36.0001 24.0013C31.5818 24.0013 28.0001 27.583 28.0001 32.0013C28.0001 36.4196 31.5818 40.0013 36.0001 40.0013Z" stroke="#231F20" stroke-width="4" stroke-linecap="round" stroke-linejoin="round"/>
<path d="M55.7334 40.0013C55.3784 40.8056 55.2725 41.6978 55.4294 42.5629C55.5863 43.4279 55.9986 44.2262 56.6134 44.8546L56.7734 45.0146C57.2693 45.51 57.6627 46.0982 57.9311 46.7456C58.1995 47.3931 58.3376 48.0871 58.3376 48.788C58.3376 49.4888 58.1995 50.1829 57.9311 50.8303C57.6627 51.4778 57.2693 52.066 56.7734 52.5613C56.2781 53.0572 55.6899 53.4506 55.0424 53.719C54.395 53.9873 53.701 54.1255 53.0001 54.1255C52.2992 54.1255 51.6052 53.9873 50.9577 53.719C50.3103 53.4506 49.7221 53.0572 49.2267 52.5613L49.0667 52.4013C48.4383 51.7865 47.64 51.3741 46.775 51.2173C45.9099 51.0604 45.0177 51.1663 44.2134 51.5213C43.4247 51.8593 42.752 52.4206 42.2782 53.1361C41.8044 53.8515 41.5502 54.6899 41.5467 55.548V56.0013C41.5467 57.4158 40.9848 58.7723 39.9846 59.7725C38.9845 60.7727 37.6279 61.3346 36.2134 61.3346C34.7989 61.3346 33.4424 60.7727 32.4422 59.7725C31.442 58.7723 30.8801 57.4158 30.8801 56.0013V55.7613C30.8594 54.8786 30.5737 54.0226 30.0601 53.3045C29.5465 52.5864 28.8287 52.0394 28.0001 51.7346C27.1958 51.3797 26.3036 51.2738 25.4385 51.4306C24.5735 51.5875 23.7752 51.9999 23.1467 52.6146L22.9867 52.7746C22.4914 53.2705 21.9032 53.6639 21.2558 53.9323C20.6083 54.2007 19.9143 54.3388 19.2134 54.3388C18.5125 54.3388 17.8185 54.2007 17.1711 53.9323C16.5236 53.6639 15.9354 53.2705 15.4401 52.7746C14.9442 52.2793 14.5508 51.6911 14.2824 51.0436C14.014 50.3962 13.8759 49.7022 13.8759 49.0013C13.8759 48.3004 14.014 47.6064 14.2824 46.959C14.5508 46.3115 14.9442 45.7233 15.4401 45.228L15.6001 45.068C16.2148 44.4395 16.6272 43.6413 16.7841 42.7762C16.9409 41.9111 16.8351 41.0189 16.4801 40.2146C16.142 39.4259 15.5808 38.7533 14.8653 38.2795C14.1499 37.8057 13.3115 37.5514 12.4534 37.548H12.0001C10.5856 37.548 9.22904 36.9861 8.22885 35.9859C7.22865 34.9857 6.66675 33.6291 6.66675 32.2146C6.66675 30.8001 7.22865 29.4436 8.22885 28.4434C9.22904 27.4432 10.5856 26.8813 12.0001 26.8813H12.2401C13.1227 26.8607 13.9788 26.5749 14.6969 26.0613C15.415 25.5477 15.962 24.8299 16.2667 24.0013C16.6217 23.197 16.7276 22.3048 16.5708 21.4397C16.4139 20.5747 16.0015 19.7764 15.3867 19.148L15.2267 18.988C14.7309 18.4926 14.3375 17.9044 14.0691 17.257C13.8007 16.6095 13.6626 15.9155 13.6626 15.2146C13.6626 14.5138 13.8007 13.8197 14.0691 13.1723C14.3375 12.5248 14.7309 11.9366 15.2267 11.4413C15.7221 10.9454 16.3103 10.552 16.9577 10.2836C17.6052 10.0153 18.2992 9.87711 19.0001 9.87711C19.701 9.87711 20.395 10.0153 21.0424 10.2836C21.6899 10.552 22.2781 10.9454 22.7734 11.4413L22.9334 11.6013C23.5619 12.2161 24.3601 12.6285 25.2252 12.7853C26.0902 12.9422 26.9824 12.8363 27.7867 12.4813H28.0001C28.7888 12.1433 29.4615 11.582 29.9353 10.8665C30.4091 10.1511 30.6633 9.31273 30.6667 8.45464V8.0013C30.6667 6.58681 31.2287 5.23026 32.2288 4.23007C33.229 3.22987 34.5856 2.66797 36.0001 2.66797C37.4146 2.66797 38.7711 3.22987 39.7713 4.23007C40.7715 5.23026 41.3334 6.58681 41.3334 8.0013V8.2413C41.3368 9.0994 41.5911 9.93777 42.0649 10.6532C42.5387 11.3687 43.2114 11.9299 44.0001 12.268C44.8044 12.6229 45.6966 12.7288 46.5616 12.572C47.4267 12.4151 48.2249 12.0027 48.8534 11.388L49.0134 11.228C49.5087 10.7321 50.0969 10.3387 50.7444 10.0703C51.3919 9.80192 52.0859 9.66377 52.7867 9.66377C53.4876 9.66377 54.1816 9.80192 54.8291 10.0703C55.4765 10.3387 56.0648 10.7321 56.5601 11.228C57.056 11.7233 57.4493 12.3115 57.7177 12.959C57.9861 13.6064 58.1243 14.3004 58.1243 15.0013C58.1243 15.7022 57.9861 16.3962 57.7177 17.0436C57.4493 17.6911 57.056 18.2793 56.5601 18.7746L56.4001 18.9346C55.7853 19.5631 55.3729 20.3613 55.2161 21.2264C55.0592 22.0915 55.1651 22.9837 55.5201 23.788V24.0013C55.8581 24.79 56.4194 25.4627 57.1348 25.9365C57.8503 26.4103 58.6886 26.6645 59.5467 26.668H60.0001C61.4146 26.668 62.7711 27.2299 63.7713 28.2301C64.7715 29.2303 65.3334 30.5868 65.3334 32.0013C65.3334 33.4158 64.7715 34.7723 63.7713 35.7725C62.7711 36.7727 61.4146 37.3346 60.0001 37.3346H59.7601C58.902 37.3381 58.0636 37.5923 57.3482 38.0661C56.6327 38.5399 56.0714 39.2126 55.7334 40.0013Z" stroke="#231F20" stroke-width="4" stroke-linecap="round" stroke-linejoin="round"/>
</g>
<defs>
<filter id="filter0_d_690_648" x="0" y="0" width="72" height="72" filterUnits="userSpaceOnUse" color-interpolation-filters="sRGB">
<feFlood flood-opacity="0" result="BackgroundImageFix"/>
<feColorMatrix in="SourceAlpha" type="matrix" values="0 0 0 0 0 0 0 0 0 0 0 0 0 0 0 0 0 0 127 0" result="hardAlpha"/>
<feOffset dy="4"/>
<feGaussianBlur stdDeviation="2"/>
<feComposite in2="hardAlpha" operator="out"/>
<feColorMatrix type="matrix" values="0 0 0 0 0 0 0 0 0 0 0 0 0 0 0 0 0 0 0.25 0"/>
<feBlend mode="normal" in2="BackgroundImageFix" result="effect1_dropShadow_690_648"/>
<feBlend mode="normal" in="SourceGraphic" in2="effect1_dropShadow_690_648" result="shape"/>
</filter>
<clipPath id="clip0_690_648">
<rect width="64" height="64" fill="white" transform="translate(4)"/>
</clipPath>
</defs>
</svg>
