<svg width="64" height="64" viewBox="0 0 64 64" fill="none" xmlns="http://www.w3.org/2000/svg">
<path d="M32.0001 40.0013C36.4184 40.0013 40.0001 36.4196 40.0001 32.0013C40.0001 27.583 36.4184 24.0013 32.0001 24.0013C27.5818 24.0013 24.0001 27.583 24.0001 32.0013C24.0001 36.4196 27.5818 40.0013 32.0001 40.0013Z" stroke="#DB5A42" stroke-width="4" stroke-linecap="round" stroke-linejoin="round"/>
<path d="M51.7334 40.0013C51.3784 40.8056 51.2725 41.6978 51.4294 42.5629C51.5863 43.4279 51.9986 44.2262 52.6134 44.8546L52.7734 45.0146C53.2693 45.51 53.6627 46.0982 53.9311 46.7456C54.1995 47.3931 54.3376 48.0871 54.3376 48.788C54.3376 49.4888 54.1995 50.1829 53.9311 50.8303C53.6627 51.4778 53.2693 52.066 52.7734 52.5613C52.2781 53.0572 51.6899 53.4506 51.0424 53.719C50.395 53.9873 49.701 54.1255 49.0001 54.1255C48.2992 54.1255 47.6052 53.9873 46.9577 53.719C46.3103 53.4506 45.7221 53.0572 45.2267 52.5613L45.0667 52.4013C44.4383 51.7865 43.64 51.3741 42.775 51.2173C41.9099 51.0604 41.0177 51.1663 40.2134 51.5213C39.4247 51.8593 38.752 52.4206 38.2782 53.1361C37.8044 53.8515 37.5502 54.6899 37.5467 55.548V56.0013C37.5467 57.4158 36.9848 58.7723 35.9846 59.7725C34.9845 60.7727 33.6279 61.3346 32.2134 61.3346C30.7989 61.3346 29.4424 60.7727 28.4422 59.7725C27.442 58.7723 26.8801 57.4158 26.8801 56.0013V55.7613C26.8594 54.8786 26.5737 54.0226 26.0601 53.3045C25.5465 52.5864 24.8287 52.0394 24.0001 51.7346C23.1958 51.3797 22.3036 51.2738 21.4385 51.4306C20.5735 51.5875 19.7752 51.9999 19.1467 52.6146L18.9867 52.7746C18.4914 53.2705 17.9032 53.6639 17.2558 53.9323C16.6083 54.2007 15.9143 54.3388 15.2134 54.3388C14.5125 54.3388 13.8185 54.2007 13.1711 53.9323C12.5236 53.6639 11.9354 53.2705 11.4401 52.7746C10.9442 52.2793 10.5508 51.6911 10.2824 51.0436C10.014 50.3962 9.87589 49.7022 9.87589 49.0013C9.87589 48.3004 10.014 47.6064 10.2824 46.959C10.5508 46.3115 10.9442 45.7233 11.4401 45.228L11.6001 45.068C12.2148 44.4395 12.6272 43.6413 12.7841 42.7762C12.9409 41.9111 12.8351 41.0189 12.4801 40.2146C12.142 39.4259 11.5808 38.7533 10.8653 38.2795C10.1499 37.8057 9.31151 37.5514 8.45341 37.548H8.00008C6.58559 37.548 5.22904 36.9861 4.22885 35.9859C3.22865 34.9857 2.66675 33.6291 2.66675 32.2146C2.66675 30.8001 3.22865 29.4436 4.22885 28.4434C5.22904 27.4432 6.58559 26.8813 8.00008 26.8813H8.24008C9.12273 26.8607 9.97876 26.5749 10.6969 26.0613C11.415 25.5477 11.962 24.8299 12.2667 24.0013C12.6217 23.197 12.7276 22.3048 12.5708 21.4397C12.4139 20.5747 12.0015 19.7764 11.3867 19.148L11.2267 18.988C10.7309 18.4926 10.3375 17.9044 10.0691 17.257C9.8007 16.6095 9.66255 15.9155 9.66255 15.2146C9.66255 14.5138 9.8007 13.8197 10.0691 13.1723C10.3375 12.5248 10.7309 11.9366 11.2267 11.4413C11.7221 10.9454 12.3103 10.552 12.9577 10.2836C13.6052 10.0153 14.2992 9.87711 15.0001 9.87711C15.701 9.87711 16.395 10.0153 17.0424 10.2836C17.6899 10.552 18.2781 10.9454 18.7734 11.4413L18.9334 11.6013C19.5619 12.2161 20.3601 12.6285 21.2252 12.7853C22.0902 12.9422 22.9824 12.8363 23.7867 12.4813H24.0001C24.7888 12.1433 25.4615 11.582 25.9353 10.8665C26.4091 10.1511 26.6633 9.31273 26.6667 8.45464V8.0013C26.6667 6.58681 27.2287 5.23026 28.2288 4.23007C29.229 3.22987 30.5856 2.66797 32.0001 2.66797C33.4146 2.66797 34.7711 3.22987 35.7713 4.23007C36.7715 5.23026 37.3334 6.58681 37.3334 8.0013V8.2413C37.3368 9.0994 37.5911 9.93777 38.0649 10.6532C38.5387 11.3687 39.2114 11.9299 40.0001 12.268C40.8044 12.6229 41.6966 12.7288 42.5616 12.572C43.4267 12.4151 44.2249 12.0027 44.8534 11.388L45.0134 11.228C45.5087 10.7321 46.0969 10.3387 46.7444 10.0703C47.3919 9.80192 48.0859 9.66377 48.7867 9.66377C49.4876 9.66377 50.1816 9.80192 50.8291 10.0703C51.4765 10.3387 52.0648 10.7321 52.5601 11.228C53.056 11.7233 53.4493 12.3115 53.7177 12.959C53.9861 13.6064 54.1243 14.3004 54.1243 15.0013C54.1243 15.7022 53.9861 16.3962 53.7177 17.0436C53.4493 17.6911 53.056 18.2793 52.5601 18.7746L52.4001 18.9346C51.7853 19.5631 51.3729 20.3613 51.2161 21.2264C51.0592 22.0915 51.1651 22.9837 51.5201 23.788V24.0013C51.8581 24.79 52.4194 25.4627 53.1348 25.9365C53.8503 26.4103 54.6886 26.6645 55.5467 26.668H56.0001C57.4146 26.668 58.7711 27.2299 59.7713 28.2301C60.7715 29.2303 61.3334 30.5868 61.3334 32.0013C61.3334 33.4158 60.7715 34.7723 59.7713 35.7725C58.7711 36.7727 57.4146 37.3346 56.0001 37.3346H55.7601C54.902 37.3381 54.0636 37.5923 53.3482 38.0661C52.6327 38.5399 52.0714 39.2126 51.7334 40.0013Z" stroke="#DB5A42" stroke-width="4" stroke-linecap="round" stroke-linejoin="round"/>
</svg>
