<svg width="21" height="21" viewBox="0 0 21 21" fill="none" xmlns="http://www.w3.org/2000/svg">
<g clip-path="url(#clip0_832_1720)">
<path d="M9.625 3.50069H3.5C3.03587 3.50069 2.59075 3.68506 2.26256 4.01325C1.93437 4.34144 1.75 4.78656 1.75 5.25069V17.5007C1.75 17.9648 1.93437 18.4099 2.26256 18.7381C2.59075 19.0663 3.03587 19.2507 3.5 19.2507H15.75C16.2141 19.2507 16.6592 19.0663 16.9874 18.7381C17.3156 18.4099 17.5 17.9648 17.5 17.5007V11.3757M16.1875 2.18819C16.5356 1.84009 17.0077 1.64453 17.5 1.64453C17.9923 1.64453 18.4644 1.84009 18.8125 2.18819C19.1606 2.53628 19.3562 3.0084 19.3562 3.50069C19.3562 3.99297 19.1606 4.46509 18.8125 4.81319L10.5 13.1257L7 14.0007L7.875 10.5007L16.1875 2.18819Z" stroke="#DB5A42" stroke-width="4" stroke-linecap="round" stroke-linejoin="round"/>
</g>
<defs>
<clipPath id="clip0_832_1720">
<rect width="21" height="21" fill="white"/>
</clipPath>
</defs>
</svg>

