<svg width="43" height="72" viewBox="0 0 43 72" fill="none" xmlns="http://www.w3.org/2000/svg">
<g filter="url(#filter0_d_832_1605)">
<path d="M7.00391 0H35.9961C36.8229 0 37.5763 0.359346 38.1194 0.937424C38.6624 1.5155 39 2.31752 39 3.19766V18.6495V57.0474C39 57.9276 38.6624 58.7296 38.1194 59.3077C37.5763 59.8858 36.8229 60.2451 35.9961 60.2451H33.6037V61.6617C33.6037 62.948 32.6155 64 31.407 64C30.1986 64 29.2104 62.948 29.2104 61.6617V60.2451H13.8679V61.6617C13.8679 62.948 12.8796 64 11.6712 64C10.4628 64 9.47456 62.948 9.47456 61.6617V60.2451H7.00391C6.1771 60.2451 5.42368 59.8858 4.88063 59.3077C4.33757 58.7296 4 57.9276 4 57.0474V18.6495V3.19766C4 2.31752 4.33757 1.5155 4.88063 0.937424C5.42368 0.359346 6.1771 0 7.00391 0ZM8.99021 23.3783C8.99021 22.6804 9.52348 22.1128 10.1791 22.1128C10.8346 22.1128 11.3679 22.6804 11.3679 23.3783V34.0024C11.3679 34.7003 10.8346 35.268 10.1791 35.268C9.52348 35.268 8.99021 34.7003 8.99021 34.0024V23.3783ZM8.99021 5.41102C8.99021 4.71316 9.52348 4.1455 10.1791 4.1455C10.8346 4.1455 11.3679 4.71316 11.3679 5.41102V13.301C11.3679 13.9989 10.8346 14.5665 10.1791 14.5665C9.52348 14.5665 8.99021 13.9989 8.99021 13.301V5.41102ZM6.38258 17.3788H36.6223V3.19766C36.6223 3.01538 36.5538 2.84873 36.4364 2.72894C36.3239 2.60916 36.1673 2.53104 35.9961 2.53104H7.00391C6.83268 2.53104 6.67613 2.60395 6.5636 2.72894C6.45108 2.84873 6.37769 3.01538 6.37769 3.19766V17.3788H6.38258ZM36.6174 19.915H6.38258V57.0422C6.38258 57.2245 6.45108 57.3912 6.56849 57.511C6.68102 57.6307 6.83757 57.7089 7.00881 57.7089H35.9961C36.1673 57.7089 36.3239 57.6359 36.4364 57.511C36.5489 57.3912 36.6223 57.2245 36.6223 57.0422V19.915H36.6174Z" fill="#231F20"/>
</g>
<defs>
<filter id="filter0_d_832_1605" x="0" y="0" width="43" height="72" filterUnits="userSpaceOnUse" color-interpolation-filters="sRGB">
<feFlood flood-opacity="0" result="BackgroundImageFix"/>
<feColorMatrix in="SourceAlpha" type="matrix" values="0 0 0 0 0 0 0 0 0 0 0 0 0 0 0 0 0 0 127 0" result="hardAlpha"/>
<feOffset dy="4"/>
<feGaussianBlur stdDeviation="2"/>
<feComposite in2="hardAlpha" operator="out"/>
<feColorMatrix type="matrix" values="0 0 0 0 0 0 0 0 0 0 0 0 0 0 0 0 0 0 0.25 0"/>
<feBlend mode="normal" in2="BackgroundImageFix" result="effect1_dropShadow_832_1605"/>
<feBlend mode="normal" in="SourceGraphic" in2="effect1_dropShadow_832_1605" result="shape"/>
</filter>
</defs>
</svg>

