<svg width="45" height="73" viewBox="0 0 45 73" fill="none" xmlns="http://www.w3.org/2000/svg">
<g filter="url(#filter0_d_832_1504)">
<path d="M37.731 30.6076V26.8366C38.352 25.7517 41.0001 20.6956 41.0001 13.3961C41.0001 5.00716 32.1268 0.349502 31.7491 0.155391C31.5518 0.0539551 31.3217 0 31.0864 0H28.7408C28.0686 0 27.5237 0.431768 27.5237 0.964209V26.6225V30.6076L26.0914 59.6407C26.0297 61.0575 26.6804 62.3994 27.924 63.4189C29.1675 64.4385 30.8378 65 32.6275 65C34.4171 65 36.0875 64.4385 37.3309 63.4189C38.5744 62.3994 39.2251 61.0576 39.1634 59.6364L37.731 30.6076ZM29.9582 27.5917L35.2966 27.6138V29.6618H29.9582V27.5917ZM35.5798 62.0791C34.7992 62.719 33.7506 63.0716 32.6273 63.0716C31.504 63.0716 30.4553 62.719 29.6748 62.0791C28.8944 61.439 28.4859 60.5966 28.5243 59.7118L29.9117 31.5904H35.3434L36.7305 59.7073C36.7691 60.5966 36.3603 61.439 35.5798 62.0791ZM35.7187 25.6582H29.9582V1.92854H30.7016C32.1331 2.75869 38.5658 6.85509 38.5658 13.3961C38.5658 19.5957 36.5034 24.1502 35.7187 25.6582Z" fill="#DB5A42"/>
<path d="M18.9127 16.6574C18.9127 16.6469 18.9126 16.6363 18.9122 16.6258L18.4207 0.932598C18.4044 0.412725 17.997 0 17.5001 0H5.41227C4.91544 0 4.50798 0.412725 4.49173 0.932598L4.00049 16.6258C4.00024 16.6363 4 16.6469 4 16.6574C4 19.4827 5.44113 21.9621 7.59433 23.3325V26.7521L6.51057 59.6407C6.46389 61.0576 6.95635 62.3994 7.89737 63.4189C8.83816 64.4386 10.1021 65 11.4564 65C12.8106 65 14.0745 64.4385 15.0155 63.4189C15.9564 62.3994 16.4487 61.0576 16.4023 59.6407L15.3185 26.7521V23.3325C17.4715 21.9621 18.9127 19.4827 18.9127 16.6574ZM13.6904 62.0791C13.0997 62.719 12.3062 63.0716 11.4563 63.0716C10.6063 63.0716 9.81277 62.719 9.22221 62.0791C8.63164 61.439 8.32241 60.5966 8.35176 59.7073L9.40544 27.7334H13.5074L14.5611 59.7073C14.5901 60.5966 14.2809 61.439 13.6904 62.0791ZM13.4757 25.8047H9.43636V24.1698C10.0792 24.3596 10.7561 24.4632 11.456 24.4632C12.1561 24.4632 12.833 24.3595 13.4757 24.1698V25.8047ZM11.456 22.5348C8.36534 22.5348 5.84992 19.9065 5.84203 16.6726L6.30369 1.92854H8.56337V11.5014C8.56337 12.034 8.97579 12.4657 9.48438 12.4657C9.99297 12.4657 10.4054 12.0339 10.4054 11.5014V1.92854H12.5067V11.5014C12.5067 12.034 12.9191 12.4657 13.4277 12.4657C13.9364 12.4657 14.3487 12.0339 14.3487 11.5014V1.92854H16.6085L17.0701 16.6726C17.0623 19.9065 14.5468 22.5348 11.456 22.5348Z" fill="#DB5A42"/>
</g>
<defs>
<filter id="filter0_d_832_1504" x="0" y="0" width="45" height="73" filterUnits="userSpaceOnUse" color-interpolation-filters="sRGB">
<feFlood flood-opacity="0" result="BackgroundImageFix"/>
<feColorMatrix in="SourceAlpha" type="matrix" values="0 0 0 0 0 0 0 0 0 0 0 0 0 0 0 0 0 0 127 0" result="hardAlpha"/>
<feOffset dy="4"/>
<feGaussianBlur stdDeviation="2"/>
<feComposite in2="hardAlpha" operator="out"/>
<feColorMatrix type="matrix" values="0 0 0 0 0 0 0 0 0 0 0 0 0 0 0 0 0 0 0.25 0"/>
<feBlend mode="normal" in2="BackgroundImageFix" result="effect1_dropShadow_832_1504"/>
<feBlend mode="normal" in="SourceGraphic" in2="effect1_dropShadow_832_1504" result="shape"/>
</filter>
</defs>
</svg>

